Coordinates
version=1
nRows=19
nColumns=33
inDegrees=yes

Units are S.I. units (second, meters, Newtons, ...)
Angles are in degrees.

endheader
time	ground_thorax_rot_x	ground_thorax_rot_y	ground_thorax_rot_z	ground_thorax_tx	ground_thorax_ty	ground_thorax_tz	clav_prot_r	clav_elev_r	scapula_abduction_r	scapula_elevation_r	scapula_upward_rot_r	scapula_winging_r	shoulder_elv_r	plane_of_elev_r	axial_rot_r	elbow_flexion_r	pro_sup_r	wrist_flex_r	wrist_dev_r	clav_prot_l	clav_elev_l	scapula_abduction_l	scapula_elevation_l	scapula_upward_rot_l	scapula_winging_l	shoulder_elv_l	plane_of_elev_l	axial_rot_l	elbow_flexion_l	pro_sup_l	wrist_flex_l	wrist_dev_l
      8.21000000	    -31.97561625	    -24.91049932	     37.65314629	   -157.58926862	    802.32084711	      7.19675587	      6.76110303	    -45.00000000	     39.27114981	    -45.00000000	    -35.63608540	  -1540.42046540	  -3890.71364846	     31.83412177	     67.55172732	    732.17821587	     14.50998915	     18.96961653	      9.68772623	     14.95315985	     38.18901843	    -36.67762739	    -45.00000000	    -45.00000000	     83.63366524	  -2448.66929864	     24.23775453	    -37.36166656	   -350.33601180	      4.38069521	      9.85664531	    -19.21561958
      8.22000000	    -32.29629241	    -24.44411796	     36.93765005	   -160.42002936	    803.67214691	      7.07642883	      6.70052133	    -45.00000000	     39.36456716	    -45.00000000	    -35.10864737	  -1540.52855733	  -3890.56092490	     31.85615804	     67.42189680	    732.21137821	     14.23236586	     19.00353419	      9.57397696	     14.92032263	     38.20645626	    -36.87296689	    -45.00000000	    -45.00000000	     83.78427589	  -2448.51563195	     24.29336728	    -37.27646125	   -350.21325339	      3.97092242	      9.81582577	    -19.27945208
      8.23000000	    -32.35957633	    -24.34902554	     36.75681034	   -163.26359691	    805.02221715	      6.96152255	      6.87323125	    -45.00000000	     39.37751401	    -45.00000000	    -35.46387403	  -1540.70001251	  -3890.40131743	     32.10597179	     67.78754102	    732.18265508	     13.89330237	     18.99094923	      9.51167506	     15.08890063	     37.76197834	    -36.73402040	    -45.00000000	    -45.00000000	     83.78930928	  -2448.35341460	     24.29383819	    -36.45477334	   -350.46668013	      3.35250602	      9.71549938	    -19.21732439
      8.24000000	    -32.73730769	    -23.80823773	     35.90475458	   -166.10718583	    806.36187284	      6.85166597	      6.64361431	    -45.00000000	     39.59157351	    -45.00000000	    -34.49878688	  -1540.68346974	  -3890.09100046	     31.87183987	     67.48192947	    732.32581921	     13.53426723	     19.07258958	      9.54609142	     15.01857497	     38.21428136	    -37.09669302	    -45.00000000	    -45.00000000	     84.13240212	  -2448.28533791	     24.31246457	    -36.93569132	   -350.26920192	      2.96519355	      9.50586105	    -19.32519007
      8.25000000	    -32.90595701	    -23.49862352	     35.50481670	   -168.94135606	    807.68190594	      6.74745325	      6.83064449	    -45.00000000	     39.51430343	    -45.00000000	    -34.77733978	  -1540.94584708	  -3890.04939991	     32.24142120	     67.76528416	    732.24448791	     13.11909175	     19.04121998	      9.33921549	     15.07936145	     37.73780391	    -37.01921912	    -45.00000000	    -45.00000000	     84.09737703	  -2448.08995971	     24.39623792	    -36.21362593	   -350.34412415	      2.36996058	      9.56028026	    -19.30253109
      8.26000000	    -33.13829693	    -23.13680894	     34.94653038	   -171.77136358	    808.98191464	      6.64957616	      6.81002269	    -45.00000000	     39.55354841	    -45.00000000	    -34.45893705	  -1541.06690778	  -3889.89186163	     32.29343608	     67.77747094	    732.27441684	     12.65789262	     19.05999964	      9.26630198	     15.09263702	     37.70886471	    -37.15998113	    -45.00000000	    -45.00000000	     84.26338317	  -2447.99439119	     24.37983057	    -36.15519207	   -350.31350076	      1.86402480	      9.44613236	    -19.33338113
      8.27000000	    -33.38143968	    -22.75900587	     34.37806160	   -174.59017084	    810.25546322	      6.55996388	      6.82098055	    -45.00000000	     39.57910270	    -45.00000000	    -34.24270209	  -1541.17710549	  -3889.76069977	     32.38228252	     67.80197209	    732.25436431	     12.15124109	     19.06240223	      9.15227445	     15.08083172	     37.66184540	    -37.23005141	    -45.00000000	    -45.00000000	     84.37687689	  -2447.80791593	     24.38472723	    -36.04224900	   -350.27128375	      1.36073247	      9.43365926	    -19.35835840
      8.28000000	    -33.61739824	    -22.29888497	     33.80455226	   -177.39449966	    811.49866401	      6.48025557	      6.69982391	    -45.00000000	     39.68429785	    -45.00000000	    -33.81744480	  -1541.28707915	  -3889.51308383	     32.28828641	     67.77774334	    732.36615650	     11.68761110	     19.11197515	      9.19449489	     15.08172325	     37.77866203	    -37.43451217	    -45.00000000	    -45.00000000	     84.61811082	  -2447.83137527	     24.47239538	    -36.18566778	   -350.23417570	      0.93967668	      9.19672707	    -19.41449951
      8.29000000	    -33.85251306	    -21.94808690	     33.21298865	   -180.17586769	    812.70510042	      6.41161508	      6.67560809	    -45.00000000	     39.70111663	    -45.00000000	    -33.55698679	  -1541.38016061	  -3889.34996601	     32.38165200	     67.77772940	    732.43059096	     11.19787538	     19.13303524	      9.13822554	     15.06070410	     37.77871048	    -37.49888654	    -45.00000000	    -45.00000000	     84.85185571	  -2447.70084037	     24.49223869	    -36.29026335	   -350.12918998	      0.53985826	      9.09003908	    -19.46902736
      8.30000000	    -34.03772298	    -21.56908423	     32.82128430	   -182.93406930	    813.87244989	      6.35400079	      6.77654653	    -45.00000000	     39.68580849	    -45.00000000	    -33.64381323	  -1541.52576999	  -3889.29971002	     32.44507327	     67.90384100	    732.24992224	     10.60459896	     19.07674728	      8.96528500	     15.04937940	     37.61690035	    -37.50994403	    -45.00000000	    -45.00000000	     84.76798298	  -2447.46949128	     24.43099396	    -36.00281563	   -350.18038640	      0.07104143	      9.17559517	    -19.45196376
      8.31000000	    -34.23482307	    -21.24061008	     32.32630228	   -185.66191855	    814.99576844	      6.30639456	      6.73715683	    -45.00000000	     39.69782589	    -45.00000000	    -33.45434594	  -1541.61173771	  -3889.15126607	     32.48577720	     67.92488105	    732.25349483	      9.99421316	     19.07276756	      8.93735128	     15.03988685	     37.62630390	    -37.58322823	    -45.00000000	    -45.00000000	     84.97782358	  -2447.40985814	     24.43185653	    -36.14060774	   -350.13874214	     -0.33549629	      9.02862657	    -19.48861561
      8.32000000	    -34.50725442	    -20.75153817	     31.75074336	   -188.35394551	    816.07173809	      6.26706551	      6.38824556	    -45.00000000	     39.87488775	    -45.00000000	    -32.48935799	  -1541.53933360	  -3888.89260282	     31.89050243	     67.51737546	    732.31480485	      9.47290110	     19.09784363	      9.02203382	     14.84241935	     38.31832344	    -37.91743190	    -45.00000000	    -45.00000000	     85.25153511	  -2447.31263650	     24.29827256	    -37.28712878	   -349.92052157	     -0.48087949	      8.91732249	    -19.59246963
      8.33000000	    -34.61010029	    -20.52879531	     31.41528324	   -191.01148396	    817.10024616	      6.23433107	      6.67311530	    -45.00000000	     39.70797445	    -45.00000000	    -33.19717383	  -1541.77574483	  -3888.85992480	     32.47044706	     67.94265292	    732.23679574	      8.86427092	     19.05182175	      8.89345983	     14.98353485	     37.67184365	    -37.72099396	    -45.00000000	    -45.00000000	     85.29889644	  -2447.26779633	     24.43896571	    -36.43019500	   -350.11724177	     -0.99909277	      8.80451760	    -19.54413232
      8.34000000	    -34.77301428	    -20.13232011	     31.05874392	   -193.62733631	    818.08000086	      6.20698478	      6.71660309	    -45.00000000	     39.70764062	    -45.00000000	    -33.25831348	  -1541.94668188	  -3888.75620235	     32.48540100	     68.09450737	    732.21257192	      8.18510546	     19.02972917	      8.82847005	     14.98397156	     37.57551423	    -37.76297208	    -45.00000000	    -45.00000000	     85.37558618	  -2447.17451122	     24.43748590	    -36.50929100	   -350.06471176	     -1.40788111	      8.69302434	    -19.55917102
      8.35000000	    -35.05193481	    -19.77657795	     30.47597970	   -196.19306460	    819.01035473	      6.18485851	      6.33252599	    -45.00000000	     39.81031187	    -45.00000000	    -32.11995239	  -1541.74410995	  -3888.59503717	     31.84064715	     67.46794005	    732.16600941	      7.61119786	     19.02016807	      8.86879032	     14.64644139	     38.51118837	    -38.07825883	    -45.00000000	    -45.00000000	     85.61670513	  -2446.98921677	     24.07203698	    -38.20196045	   -349.91248498	     -1.43929011	      8.72580318	    -19.63853138
      8.36000000	    -35.09940599	    -19.57926829	     30.22875504	   -198.73342928	    819.90257533	      6.16827065	      6.64263657	    -45.00000000	     39.66768505	    -45.00000000	    -33.12513098	  -1542.02995890	  -3888.49115550	     32.48823027	     68.07951327	    732.18239429	      7.01265154	     19.00513183	      8.74762262	     14.90199178	     37.66476067	    -37.78635734	    -45.00000000	    -45.00000000	     85.67254870	  -2447.03543264	     24.31661826	    -36.94884090	   -350.06367762	     -2.05336353	      8.56598218	    -19.57395499
      8.37000000	    -35.32777593	    -19.15177155	     29.77354913	   -201.21377487	    820.74753405	      6.15813628	      6.30162415	    -45.00000000	     39.84675869	    -45.00000000	    -32.18466810	  -1541.92656739	  -3888.31777213	     31.82081101	     67.61792443	    732.16921642	      6.47431655	     19.00513038	      8.71403647	     14.57735040	     38.51811881	    -38.09531134	    -45.00000000	    -45.00000000	     85.83266823	  -2446.86812736	     23.96202235	    -38.59210297	   -349.80352802	     -2.12079221	      8.62108105	    -19.65357366
      8.38000000	    -35.40793747	    -18.99536620	     29.56198235	   -203.66168782	    821.55650567	      6.15461849	      6.63444427	    -45.00000000	     39.59382962	    -45.00000000	    -33.19092304	  -1542.21438859	  -3888.28393404	     32.48008008	     68.19654906	    732.18288461	      5.95663005	     18.99891825	      8.61158221	     14.83612072	     37.65808346	    -37.78734702	    -45.00000000	    -45.00000000	     85.90766221	  -2446.92055572	     24.22117972	    -37.45194221	   -350.06062033	     -2.74149762	      8.39718298	    -19.56421564
      8.39000000	    -35.53209867	    -18.70399853	     29.26597110	   -206.05583028	    822.32418527	      6.15711019	      6.71536781	    -45.00000000	     39.54804138	    -45.00000000	    -33.37211384	  -1542.33417962	  -3888.21163427	     32.56318047	     68.36155413	    732.13096276	      5.43149952	     18.98217603	      8.54005417	     14.84211963	     37.55031005	    -37.76973886	    -45.00000000	    -45.00000000	     86.00099261	  -2446.88348008	     24.14484086	    -37.72441007	   -349.99733240	     -3.19568389	      8.27482020	    -19.55490317
